<?xml version="1.0" encoding="utf-8"?><!-- Uploaded to: SVG Repo, www.svgrepo.com, Generator: SVG Repo Mixer Tools -->
<svg width="800px" height="800px" viewBox="0 0 24 24" fill="none" xmlns="http://www.w3.org/2000/svg">
<path d="M9 21H3C2.44772 21 2 20.5523 2 20L2 4C2 3.44772 2.44772 3 3 3H8.44792C8.79153 3 9.11108 3.17641 9.29415 3.46719L10.5947 5.53281C10.7778 5.82359 11.0974 6 11.441 6H21C21.5523 6 22 6.44772 22 7V14" stroke="#200E32" stroke-width="2" stroke-linecap="round"/>
<path d="M14.0428 21.9923C13.7055 21.9917 13.1248 21.9042 12.8413 21.7261C12.3351 21.4082 12 20.8542 12 20.2237C12 19.3235 12.6834 18.5791 13.5721 18.4555C13.5994 16.5426 15.1989 15 17.1683 15C18.7391 15 20.0744 15.9814 20.5646 17.3492C20.5791 17.3489 20.5934 17.3481 20.6079 17.3481C21.9291 17.3481 23 18.3918 23 19.6792C23 20.8903 22.0522 21.8851 20.84 21.9989C20.7902 22.0035 14.0428 21.9923 14.0428 21.9923V21.9923Z" stroke="#200E32" stroke-width="2"/>
</svg>