<?xml version="1.0" encoding="utf-8"?><!-- Uploaded to: SVG Repo, www.svgrepo.com, Generator: SVG Repo Mixer Tools -->
<svg width="800px" height="800px" viewBox="0 0 24 24" fill="none" xmlns="http://www.w3.org/2000/svg">
<path d="M4 4C4 3.44772 4.44772 3 5 3H14H14.5858C14.851 3 15.1054 3.10536 15.2929 3.29289L19.7071 7.70711C19.8946 7.89464 20 8.149 20 8.41421V20C20 20.5523 19.5523 21 19 21H5C4.44772 21 4 20.5523 4 20V4Z" stroke="#200E32" stroke-width="2" stroke-linecap="round"/>
<path d="M20 8H15V3" stroke="#200E32" stroke-width="2" stroke-linecap="round" stroke-linejoin="round"/>
<path d="M7.5 13H7V17H7.5C8.60457 17 9.5 16.1046 9.5 15C9.5 13.8954 8.60457 13 7.5 13Z" stroke="#200E32" stroke-width="1.5" stroke-linecap="round" stroke-linejoin="round"/>
<path d="M17.5 13L17 13C16.4477 13 16 13.4477 16 14V16C16 16.5523 16.4477 17 17 17H17.5" stroke="#200E32" stroke-width="1.5" stroke-linecap="round" stroke-linejoin="round"/>
<path d="M11.5 14C11.5 13.4477 11.9477 13 12.5 13H13C13.5523 13 14 13.4477 14 14V16C14 16.5523 13.5523 17 13 17H12.5C11.9477 17 11.5 16.5523 11.5 16V14Z" stroke="#200E32" stroke-width="1.5" stroke-linecap="round" stroke-linejoin="round"/>
</svg>